<?xml version="1.0" standalone="no"?>
<svg xmlns:xlink="http://www.w3.org/1999/xlink" id="wave" style="transform:rotate(0deg); transition: 0.3s" viewBox="0 0 1440 490" version="1.1" xmlns="http://www.w3.org/2000/svg"><defs><linearGradient id="sw-gradient-0" x1="0" x2="0" y1="1" y2="0"><stop stop-color="rgba(71, 215, 85, 1)" offset="0%"/><stop stop-color="rgba(37.632, 123.302, 46.495, 1)" offset="100%"/></linearGradient></defs><path style="transform:translate(0, 0px); opacity:1" fill="url(#sw-gradient-0)" d="M0,49L34.3,98C68.6,147,137,245,206,269.5C274.3,294,343,245,411,196C480,147,549,98,617,106.2C685.7,114,754,180,823,228.7C891.4,278,960,310,1029,269.5C1097.1,229,1166,114,1234,106.2C1302.9,98,1371,196,1440,228.7C1508.6,261,1577,229,1646,228.7C1714.3,229,1783,261,1851,236.8C1920,212,1989,131,2057,138.8C2125.7,147,2194,245,2263,302.2C2331.4,359,2400,376,2469,326.7C2537.1,278,2606,163,2674,147C2742.9,131,2811,212,2880,204.2C2948.6,196,3017,98,3086,81.7C3154.3,65,3223,131,3291,163.3C3360,196,3429,196,3497,187.8C3565.7,180,3634,163,3703,204.2C3771.4,245,3840,343,3909,343C3977.1,343,4046,245,4114,220.5C4182.9,196,4251,245,4320,261.3C4388.6,278,4457,261,4526,261.3C4594.3,261,4663,278,4731,310.3C4800,343,4869,392,4903,416.5L4937.1,441L4937.1,490L4902.9,490C4868.6,490,4800,490,4731,490C4662.9,490,4594,490,4526,490C4457.1,490,4389,490,4320,490C4251.4,490,4183,490,4114,490C4045.7,490,3977,490,3909,490C3840,490,3771,490,3703,490C3634.3,490,3566,490,3497,490C3428.6,490,3360,490,3291,490C3222.9,490,3154,490,3086,490C3017.1,490,2949,490,2880,490C2811.4,490,2743,490,2674,490C2605.7,490,2537,490,2469,490C2400,490,2331,490,2263,490C2194.3,490,2126,490,2057,490C1988.6,490,1920,490,1851,490C1782.9,490,1714,490,1646,490C1577.1,490,1509,490,1440,490C1371.4,490,1303,490,1234,490C1165.7,490,1097,490,1029,490C960,490,891,490,823,490C754.3,490,686,490,617,490C548.6,490,480,490,411,490C342.9,490,274,490,206,490C137.1,490,69,490,34,490L0,490Z"/></svg>